<?xml version="1.0" standalone="no"?><!DOCTYPE svg PUBLIC "-//W3C//DTD SVG 1.1//EN" "http://www.w3.org/Graphics/SVG/1.1/DTD/svg11.dtd"><svg t="1760824489321" class="icon" viewBox="0 0 1024 1024" version="1.1" xmlns="http://www.w3.org/2000/svg" p-id="5901" xmlns:xlink="http://www.w3.org/1999/xlink" width="256" height="256"><path d="M0 512a512 512 0 1 0 1024 0A512 512 0 1 0 0 512z" fill="#ffffff" p-id="5902" data-spm-anchor-id="a313x.manage_type_myprojects.0.i59.12cf3a81rxozeU" class=""></path><path d="M377.14 292.884a16.855 16.855 0 0 0-16.856 16.856v33.669a16.855 16.855 0 0 0 16.855 16.855h269.68a16.855 16.855 0 0 0 16.856-16.855v-33.71a16.855 16.855 0 0 0-16.855-16.855z m-50.566 84.276a16.855 16.855 0 0 0-11.92 4.935 16.855 16.855 0 0 0-4.935 11.92v33.71a16.855 16.855 0 0 0 4.936 11.92 16.855 16.855 0 0 0 11.92 4.935h370.81a16.855 16.855 0 0 0 11.92-4.936 16.855 16.855 0 0 0 4.935-11.92v-33.71a16.855 16.855 0 0 0-4.936-11.919 16.855 16.855 0 0 0-11.919-4.935z m0 0M743.014 466.37a16.876 16.876 0 0 0-11.919-4.935H579.318a67.42 67.42 0 0 1-67.42 67.42 67.42 67.42 0 0 1-67.42-67.42H292.781a16.876 16.876 0 0 0-11.92 4.936 16.855 16.855 0 0 0-4.935 11.919v235.97a16.855 16.855 0 0 0 4.936 11.92 16.876 16.876 0 0 0 11.92 4.936h438.271a16.876 16.876 0 0 0 11.92-4.936 16.855 16.855 0 0 0 4.935-11.92V478.29a16.855 16.855 0 0 0-4.895-11.92zM594.002 638.404a16.855 16.855 0 0 1-14.602 8.437H444.56a16.855 16.855 0 0 1-11.92-4.935 16.876 16.876 0 0 1-4.936-11.92 16.855 16.855 0 0 1 4.936-11.92 16.855 16.855 0 0 1 11.92-4.935h134.758a16.876 16.876 0 0 1 14.602 8.418 16.876 16.876 0 0 1 0.082 16.875z" fill="#4B91F5" p-id="5903" data-spm-anchor-id="a313x.manage_type_myprojects.0.i60.12cf3a81rxozeU" class="selected"></path></svg>