<?xml version="1.0" standalone="no"?><!DOCTYPE svg PUBLIC "-//W3C//DTD SVG 1.1//EN" "http://www.w3.org/Graphics/SVG/1.1/DTD/svg11.dtd"><svg t="1714014461367" class="icon" viewBox="0 0 1026 1024" version="1.1" xmlns="http://www.w3.org/2000/svg" p-id="44373" xmlns:xlink="http://www.w3.org/1999/xlink" width="200.390625" height="200"><path d="M246.442667 421.205333a251.221333 251.221333 0 0 1-4.096-45.056 268.970667 268.970667 0 0 1 537.941333 0 333.824 333.824 0 0 1 0 45.056 247.125333 247.125333 0 1 1-178.176 419.84 61.44 61.44 0 0 1 0-86.698666 62.122667 62.122667 0 0 1 87.381333 0 124.245333 124.245333 0 1 0 4.778667-182.954667l-6.826667 7.509333-4.778666 4.096-257.365334 257.365334a247.125333 247.125333 0 1 1-178.858666-419.157334z m0 371.370667A124.928 124.928 0 1 0 122.88 667.648a124.928 124.928 0 0 0 124.928 124.928z m263.509333-273.066667a145.408 145.408 0 1 0-144.042667-143.36 146.090667 146.090667 0 0 0 145.408 145.408z m0 0" fill="#06A7FF" p-id="44374"></path><path d="M656.725333 391.850667a27.989333 27.989333 0 0 1 0-7.509334 62.122667 62.122667 0 0 1 124.245334 0 33.450667 33.450667 0 0 1 0 8.192 268.970667 268.970667 0 0 1-536.576 0v-8.192a62.122667 62.122667 0 0 1 124.245333 0v7.509334a146.090667 146.090667 0 0 0 290.133333 0z m0 0" fill="#FF436A" p-id="44375"></path></svg>