<?xml version="1.0" standalone="no"?><!DOCTYPE svg PUBLIC "-//W3C//DTD SVG 1.1//EN" "http://www.w3.org/Graphics/SVG/1.1/DTD/svg11.dtd"><svg t="1759968995170" class="icon" viewBox="0 0 1024 1024" version="1.1" xmlns="http://www.w3.org/2000/svg" p-id="97376" xmlns:xlink="http://www.w3.org/1999/xlink" width="256" height="256"><path d="M1024 512c0 282.8-229.2 512-512 512S0 794.8 0 512 229.2 0 512 0s512 229.2 512 512z" fill="#FF6485" p-id="97377"></path><path d="M1006.7 644c-0.2-0.2-0.4-0.5-0.6-0.7-1.5-1.6-3.1-3-4.7-4.4-0.6-0.6-1.2-1.4-1.7-2-1.5-1.6-3.1-3-4.7-4.4-0.6-0.6-1.1-1.4-1.7-2-1.5-1.6-3.1-3-4.7-4.4-0.6-0.6-1.1-1.4-1.7-2-1.5-1.6-3.1-3-4.7-4.4-0.6-0.6-1.2-1.4-1.7-2-1.5-1.6-3.1-3-4.7-4.4-0.6-0.6-1.2-1.4-1.7-2-1.5-1.6-3.1-3-4.7-4.4-0.6-0.6-1.1-1.4-1.7-2-1.5-1.6-3.1-3-4.7-4.4-0.6-0.6-1.2-1.4-1.7-2-1.5-1.6-3.1-3-4.7-4.4-0.6-0.6-1.1-1.4-1.7-2-1.5-1.6-3.1-3-4.7-4.4-0.6-0.6-1.1-1.4-1.7-2-1.5-1.6-3.1-3-4.7-4.4-0.6-0.6-1.2-1.4-1.7-2-1.5-1.6-3.1-3-4.7-4.4-0.6-0.6-1.1-1.4-1.7-2-1.5-1.6-3.1-3-4.7-4.4-0.6-0.6-1.1-1.4-1.7-2-1.5-1.6-3.1-3-4.7-4.4-0.6-0.6-1.2-1.4-1.7-2-1.5-1.6-3.1-3-4.7-4.4-0.6-0.6-1.1-1.4-1.7-2-1.5-1.6-3.1-3-4.7-4.4-0.6-0.6-1.1-1.4-1.7-2-1.5-1.6-3.1-3-4.7-4.4-0.6-0.6-1.2-1.4-1.7-2-1.5-1.6-3.1-3-4.7-4.4-0.6-0.6-1.2-1.4-1.7-2-1.5-1.6-3.1-3-4.7-4.4-0.6-0.6-1.1-1.4-1.7-2-1.5-1.6-3.1-3-4.7-4.4-0.6-0.6-1.2-1.4-1.7-2-1.5-1.6-3.1-3-4.7-4.4-0.6-0.6-1.1-1.4-1.7-2-1.5-1.6-3.1-3-4.7-4.4-0.6-0.6-1.1-1.4-1.7-2-1.5-1.6-3.1-3-4.7-4.4-0.6-0.6-1.2-1.4-1.7-2-1.5-1.6-3.1-3-4.7-4.4-0.6-0.6-1.1-1.4-1.7-2-1.5-1.6-3.1-3-4.7-4.4-0.6-0.6-1.1-1.4-1.7-2-1.5-1.6-3.1-3-4.7-4.4-0.6-0.6-1.1-1.4-1.7-2-1.5-1.6-3.1-3-4.7-4.4-0.6-0.6-1.1-1.4-1.7-2-1.5-1.6-3.1-3-4.7-4.4-0.6-0.6-1.1-1.4-1.7-2-1.5-1.6-3.1-3-4.7-4.4-0.6-0.6-1.1-1.4-1.7-2-1.5-1.6-3.1-3-4.7-4.4-0.6-0.6-1.1-1.4-1.7-2-1.5-1.6-3.1-3-4.7-4.4-0.6-0.6-1.1-1.4-1.7-2-1.5-1.6-3.1-3-4.7-4.4-0.6-0.6-1.1-1.4-1.7-2-1.5-1.6-3.1-3-4.7-4.4-0.6-0.6-1.1-1.4-1.7-2-1.5-1.6-3.1-3-4.7-4.4-0.6-0.6-1.1-1.4-1.7-2-1.5-1.6-3.1-3-4.7-4.4-0.6-0.6-1.2-1.4-1.7-2-1.5-1.6-3.1-3-4.7-4.4-0.6-0.6-1.1-1.4-1.7-2-1.5-1.6-3.1-3-4.7-4.4-0.6-0.6-1.2-1.4-1.7-2-1.5-1.6-3.1-3-4.7-4.4-0.6-0.6-1.1-1.4-1.7-2-1.5-1.6-3.1-3-4.7-4.4-0.6-0.6-1.1-1.4-1.7-2-1.5-1.6-3.1-3-4.7-4.4-0.6-0.6-1.1-1.4-1.7-2-1.5-1.6-3.1-3-4.7-4.4-0.6-0.6-1.1-1.4-1.7-2-1.5-1.6-3.1-3-4.7-4.4-0.6-0.6-1.1-1.4-1.7-2-1.5-1.6-3.1-3-4.7-4.4-0.6-0.6-1.1-1.4-1.7-2-1.5-1.6-3.1-3-4.7-4.4-0.6-0.6-1.1-1.4-1.7-2-1.5-1.6-3.1-3-4.7-4.4-0.6-0.6-1.1-1.4-1.7-2-1.5-1.6-3.1-3-4.7-4.4-0.6-0.6-1.1-1.4-1.7-2-1.5-1.6-3.1-2.9-4.6-4.4-0.6-0.7-1.2-1.5-1.8-2.1-42.4-45.7-118.5-32.6-151.1-1.1-13 12-45.7 16.3-45.7 16.3s-32.6-4.3-45.7-16.3c-32.6-31.5-108.7-44.6-151.1 1.1-41.3 44.6-75 150-75 250.1 0 44 13.6 74.2 33.6 92 2.1 2.3 4.2 4.5 6.5 6.5 2.1 2.3 4.2 4.5 6.5 6.5 2.1 2.3 4.2 4.5 6.5 6.5 2.1 2.3 4.2 4.5 6.5 6.5 2.1 2.3 4.2 4.5 6.5 6.5 2.1 2.3 4.2 4.5 6.5 6.5 2.1 2.3 4.2 4.5 6.5 6.5 2.1 2.3 4.2 4.5 6.5 6.5 2.1 2.3 4.2 4.5 6.5 6.5 2.1 2.3 4.2 4.5 6.5 6.5 2.1 2.3 4.2 4.5 6.5 6.5 2.1 2.3 4.2 4.5 6.5 6.5 2.1 2.3 4.2 4.5 6.5 6.5 2.1 2.3 4.2 4.5 6.5 6.5 2.1 2.3 4.2 4.5 6.5 6.5 2.1 2.3 4.2 4.5 6.5 6.5 2.1 2.3 4.2 4.5 6.5 6.5 2.1 2.3 4.2 4.5 6.5 6.5 2.1 2.3 4.2 4.5 6.5 6.5 2.1 2.3 4.2 4.5 6.5 6.5 2.1 2.3 4.2 4.5 6.5 6.5 2.1 2.3 4.2 4.5 6.5 6.5 2.1 2.3 4.2 4.5 6.5 6.5 2.1 2.3 4.2 4.5 6.5 6.5 2.1 2.3 4.2 4.5 6.5 6.5 2.1 2.3 4.2 4.5 6.5 6.5 2.1 2.3 4.2 4.5 6.5 6.5 2.1 2.3 4.2 4.5 6.5 6.5 2.1 2.3 4.2 4.5 6.5 6.5 2.1 2.3 4.2 4.5 6.5 6.5 2.1 2.3 4.2 4.5 6.5 6.5 2.1 2.3 4.2 4.5 6.5 6.5 2.1 2.3 4.2 4.5 6.5 6.5 2.1 2.3 4.2 4.5 6.5 6.5 2.1 2.3 4.2 4.5 6.5 6.5 2.1 2.3 4.2 4.5 6.5 6.5 2.1 2.3 4.2 4.5 6.5 6.5 2.1 2.3 4.2 4.5 6.5 6.5 2.1 2.3 4.2 4.5 6.5 6.5 2.1 2.3 4.2 4.5 6.5 6.5 2.1 2.3 4.2 4.5 6.5 6.5 2.1 2.3 4.2 4.5 6.5 6.5 2.1 2.3 4.2 4.5 6.5 6.5 2.1 2.3 4.2 4.5 6.5 6.5 2.1 2.3 4.2 4.5 6.5 6.5 2.1 2.3 4.2 4.5 6.5 6.5 2.1 2.3 4.2 4.5 6.5 6.5 2.1 2.3 4.2 4.5 6.5 6.5 2.1 2.3 4.2 4.5 6.5 6.5 2.1 2.3 4.2 4.5 6.5 6.5 1.5 1.7 3.2 3.3 4.8 4.8C798.2 981.2 956 834.5 1006.7 644z" fill="#D11C4B" p-id="97378"></path><path d="M708.8 346c-42.4-45.7-118.5-32.6-151.1-1.1-13 12-45.7 16.3-45.7 16.3s-32.6-4.3-45.7-16.3c-32.6-31.5-108.7-44.6-151.1 1.1-41.3 44.6-75 150-75 250.1 0 120.7 102.2 138.1 158.7 78.3 32.6-34.8 35.9-40.2 56.5-67.4h113.1c21.7 27.2 23.9 32.6 56.5 67.4 55.4 59.8 158.7 42.4 158.7-78.3 0.1-100.1-33.6-206.6-74.9-250.1zM454.4 497.1h-32.6v32.6c0 13-9.8 23.9-22.8 23.9-12 0-22.8-10.9-22.8-23.9v-32.6h-32.6c-13 0-23.9-9.8-23.9-22.8 0-12 10.9-22.8 23.9-22.8h32.6v-32.6c0-13 9.8-23.9 22.8-23.9 12 0 22.8 10.9 22.8 23.9v32.6h32.6c13 0 23.9 9.8 23.9 22.8 0 11.9-10.9 22.8-23.9 22.8z m142.4 31.5c-15.2 0-28.3-12-28.3-27.2s13-28.3 28.3-28.3c15.2 0 28.3 13 28.3 28.3s-13.1 27.2-28.3 27.2z m56.5-66.3c-15.2 0-28.3-12-28.3-28.3 0-15.2 13-28.3 28.3-28.3 15.2 0 28.3 13 28.3 28.3s-13 28.3-28.3 28.3z" fill="#FFFFFF" p-id="97379"></path></svg>