<?xml version="1.0" standalone="no"?><!DOCTYPE svg PUBLIC "-//W3C//DTD SVG 1.1//EN" "http://www.w3.org/Graphics/SVG/1.1/DTD/svg11.dtd"><svg t="1760899708923" class="icon" viewBox="0 0 1024 1024" version="1.1" xmlns="http://www.w3.org/2000/svg" p-id="1273" xmlns:xlink="http://www.w3.org/1999/xlink" width="256" height="256"><path d="M0 0h1024v1024H0z" fill="#FFFFFF" fill-opacity="0" p-id="1274"></path><path d="M1024 0v1024H0V0h1024z" fill="#FFFFFF" fill-opacity="0" p-id="1275"></path><path d="M872.96 384c36.48 0 58.24 21.76 58.88 58.24 0.64 72.32 0.64 144 0 216.32 0 38.4-21.76 59.52-59.52 60.16-67.2 0.64-133.12 0-200.32 0-46.72 0-74.88 28.16-74.88 74.24 0 35.84 0.64 71.68 0 106.88-0.64 38.4-21.76 59.52-59.52 60.16-41.6 0.64-82.56 0.64-123.52 0-36.48-0.64-57.6-21.76-58.24-58.24-0.64-42.24-0.64-83.84 0-126.08 0.64-33.92 23.04-56.32 56.96-56.32 38.4-0.64 76.8 0 115.2 0 40.96-0.64 68.48-28.8 68.48-69.12V449.92c0-45.44 20.48-65.28 64.64-65.28 35.2-1.28 70.4-1.28 104.96-0.64 35.84 0 71.68-0.64 106.88 0z" fill="#4B91F5" p-id="1276" data-spm-anchor-id="a313x.manage_type_myprojects.0.i2.12cf3a81Q1CAFM" class=""></path><path d="M154.24 639.36c-35.84 0-58.24-21.76-58.24-57.6-0.64-72.96-0.64-144.64 0-216.96 0-37.76 21.76-59.52 59.52-60.16 67.2-0.64 133.12 0 200.32 0 46.72 0 74.24-27.52 74.24-74.24V123.52c0.64-38.4 22.4-59.52 60.16-60.16 40.96-0.64 81.92-0.64 123.52 0 35.84 0.64 57.6 21.76 58.24 58.24v126.08c-0.64 33.92-23.04 56.32-56.96 56.32-39.04 0.64-76.8 0-115.2 0-40.96 0.64-68.48 28.8-68.48 69.12v200.32c0 45.44-20.48 65.28-65.28 65.28-35.2 1.28-69.76 1.28-104.96 0.64-35.2 0-71.04 0.64-106.88 0z" fill="#81B9F9" opacity=".5" p-id="1277" data-spm-anchor-id="a313x.manage_type_myprojects.0.i3.12cf3a81Q1CAFM" class="selected"></path></svg>