<?xml version="1.0" standalone="no"?><!DOCTYPE svg PUBLIC "-//W3C//DTD SVG 1.1//EN" "http://www.w3.org/Graphics/SVG/1.1/DTD/svg11.dtd"><svg t="1760824457705" class="icon" viewBox="0 0 1024 1024" version="1.1" xmlns="http://www.w3.org/2000/svg" p-id="5508" xmlns:xlink="http://www.w3.org/1999/xlink" width="256" height="256"><path d="M512 512m-512 0a512 512 0 1 0 1024 0 512 512 0 1 0-1024 0Z" fill="#ffffff" p-id="5509" data-spm-anchor-id="a313x.manage_type_myprojects.0.i54.12cf3a81rxozeU" class=""></path><path d="M256 416.682667m56.896 0l398.208 0q56.896 0 56.896 56.896l0 219.136q0 56.896-56.896 56.896l-398.208 0q-56.896 0-56.896-56.896l0-219.136q0-56.896 56.896-56.896Z" fill="#4B91F5" p-id="5510" data-spm-anchor-id="a313x.manage_type_myprojects.0.i55.12cf3a81rxozeU" class=""></path><path d="M335.488 331.882667m28.437333 0l296.149334 0q28.437333 0 28.437333 28.437333l0 0.021333q0 28.437333-28.437333 28.437334l-296.149334 0q-28.437333 0-28.437333-28.437334l0-0.021333q0-28.437333 28.437333-28.437333Z" fill="#81B9F9" p-id="5511" data-spm-anchor-id="a313x.manage_type_myprojects.0.i56.12cf3a81rxozeU" class=""></path><path d="M390.890667 247.082667m28.437333 0l185.344 0q28.437333 0 28.437333 28.437333l0 0.021333q0 28.437333-28.437333 28.437334l-185.344 0q-28.437333 0-28.437333-28.437334l0-0.021333q0-28.437333 28.437333-28.437333Z" fill="#81B9F9" p-id="5512" data-spm-anchor-id="a313x.manage_type_myprojects.0.i57.12cf3a81rxozeU" class="selected"></path></svg>