<?xml version="1.0" standalone="no"?><!DOCTYPE svg PUBLIC "-//W3C//DTD SVG 1.1//EN" "http://www.w3.org/Graphics/SVG/1.1/DTD/svg11.dtd"><svg t="1760824432654" class="icon" viewBox="0 0 1024 1024" version="1.1" xmlns="http://www.w3.org/2000/svg" p-id="5208" xmlns:xlink="http://www.w3.org/1999/xlink" width="256" height="256"><path d="M512 512m-512 0a512 512 0 1 0 1024 0 512 512 0 1 0-1024 0Z" fill="#ffffff" p-id="5209" data-spm-anchor-id="a313x.manage_type_myprojects.0.i51.12cf3a81rxozeU" class=""></path><path d="M247.872 298.666667h528.256a13.013333 13.013333 0 0 1 9.344 3.989333 13.866667 13.866667 0 0 1 3.861333 9.642667V775.68a13.44 13.44 0 0 1-13.205333 13.632H247.872a13.44 13.44 0 0 1-13.205333-13.632V312.32a13.866667 13.866667 0 0 1 3.861333-9.642667 13.013333 13.013333 0 0 1 9.344-3.989333z" fill="#81B9F9" fill-opacity=".531" p-id="5210" data-spm-anchor-id="a313x.manage_type_myprojects.0.i50.12cf3a81rxozeU" class=""></path><path d="M503.594667 234.666667a13.226667 13.226667 0 0 1 11.733333 7.146666L787.84 770.069333a13.205333 13.205333 0 0 1-11.733333 19.264H247.872a13.226667 13.226667 0 0 1-13.205333-13.205333V247.872a13.226667 13.226667 0 0 1 13.226666-13.205333h255.701334z m-41.045334 106.666666h-135.765333c-4.522667 0-6.784 2.133333-6.784 6.4v51.2c0 4.266667 2.261333 6.4 6.784 6.4h135.765333c4.522667 0 6.784-2.133333 6.784-6.4v-51.2c0-4.266667-2.261333-6.4-6.784-6.4z" fill="#4B91F5" p-id="5211" data-spm-anchor-id="a313x.manage_type_myprojects.0.i49.12cf3a81rxozeU" class=""></path></svg>