<?xml version="1.0" standalone="no"?><!DOCTYPE svg PUBLIC "-//W3C//DTD SVG 1.1//EN" "http://www.w3.org/Graphics/SVG/1.1/DTD/svg11.dtd"><svg t="1760899721557" class="icon" viewBox="0 0 1024 1024" version="1.1" xmlns="http://www.w3.org/2000/svg" p-id="1574" data-spm-anchor-id="a313x.manage_type_myprojects.0.i10.12cf3a81Q1CAFM" xmlns:xlink="http://www.w3.org/1999/xlink" width="256" height="256"><path d="M512 106.666667l184.533333 106.666666v213.333334L512 533.333333 327.466667 426.666667V213.333333z" fill="#4B91F5" p-id="1575" data-spm-anchor-id="a313x.manage_type_myprojects.0.i5.12cf3a81Q1CAFM" class=""></path><path d="M730.666667 515.2l-163.2 94.4v188.8l163.2 94.4 163.2-94.4v-188.8z" fill="#4B91F5" opacity=".2" p-id="1576" data-spm-anchor-id="a313x.manage_type_myprojects.0.i9.12cf3a81Q1CAFM" class=""></path><path d="M730.666667 917.333333l-184.533334-106.666666v-213.333334L730.666667 490.666667l184.533333 106.666666v213.333334L730.666667 917.333333z m-141.866667-131.2l141.866667 82.133334 141.866666-82.133334v-164.266666L730.666667 539.733333l-141.866667 82.133334v164.266666z" fill="#4B91F5" p-id="1577" data-spm-anchor-id="a313x.manage_type_myprojects.0.i7.12cf3a81Q1CAFM" class=""></path><path d="M293.333333 515.2l-163.2 94.4v188.8L293.333333 892.8l163.2-94.4v-188.8z" fill="#4B91F5" opacity=".2" p-id="1578" data-spm-anchor-id="a313x.manage_type_myprojects.0.i8.12cf3a81Q1CAFM" class=""></path><path d="M293.333333 917.333333l-184.533333-106.666666v-213.333334L293.333333 490.666667l184.533334 106.666666v213.333334L293.333333 917.333333z m-141.866666-131.2L293.333333 868.266667l141.866667-82.133334v-164.266666L293.333333 539.733333l-141.866666 82.133334v164.266666z" fill="#4B91F5" p-id="1579" data-spm-anchor-id="a313x.manage_type_myprojects.0.i6.12cf3a81Q1CAFM" class=""></path></svg>