<?xml version="1.0" standalone="no"?><!DOCTYPE svg PUBLIC "-//W3C//DTD SVG 1.1//EN" "http://www.w3.org/Graphics/SVG/1.1/DTD/svg11.dtd"><svg t="1759993949287" class="icon" viewBox="0 0 1024 1024" version="1.1" xmlns="http://www.w3.org/2000/svg" p-id="17340" xmlns:xlink="http://www.w3.org/1999/xlink" width="256" height="256"><path d="M832 695.466667c12.8 0 21.333333 8.533333 21.333333 21.333333v119.466667c0 12.8-8.533333 21.333333-21.333333 21.333333h-119.466667c-12.8 0-21.333333-8.533333-21.333333-21.333333v-119.466667c0-12.8 8.533333-21.333333 21.333333-21.333333h119.466667z m-238.933333-243.2c12.8 0 21.333333 8.533333 21.333333 21.333333v119.466667c0 12.8-8.533333 21.333333-21.333333 21.333333h-119.466667c-12.8 0-21.333333-8.533333-21.333333-21.333333v-119.466667c0-12.8 8.533333-21.333333 21.333333-21.333333h119.466667zM349.866667 213.333333c12.8 0 21.333333 8.533333 21.333333 21.333334v119.466666c0 12.8-8.533333 21.333333-21.333333 21.333334H234.666667c-12.8 0-21.333333-12.8-21.333334-21.333334V234.666667c0-12.8 8.533333-21.333333 21.333334-21.333334h115.2z" fill="#3B3B60" p-id="17341"></path><path d="M349.866667 695.466667c12.8 0 21.333333 8.533333 21.333333 21.333333v119.466667c0 12.8-8.533333 21.333333-21.333333 21.333333H234.666667c-12.8-4.266667-21.333333-12.8-21.333334-25.6v-119.466667c0-12.8 8.533333-21.333333 21.333334-21.333333h115.2z m243.2 0c12.8 0 21.333333 8.533333 21.333333 21.333333v119.466667c0 12.8-8.533333 21.333333-21.333333 21.333333h-119.466667c-12.8 0-21.333333-8.533333-21.333333-21.333333v-119.466667c0-12.8 8.533333-21.333333 21.333333-21.333333h119.466667z m-243.2-243.2c12.8 0 21.333333 8.533333 21.333333 21.333333v119.466667c0 12.8-8.533333 21.333333-21.333333 21.333333H234.666667c-12.8 0-21.333333-8.533333-21.333334-21.333333v-119.466667c0-12.8 8.533333-21.333333 21.333334-21.333333h115.2z m482.133333 0c12.8 0 21.333333 8.533333 21.333333 21.333333v119.466667c0 12.8-8.533333 21.333333-21.333333 21.333333h-119.466667c-12.8 0-21.333333-8.533333-21.333333-21.333333v-119.466667c0-12.8 8.533333-21.333333 21.333333-21.333333h119.466667zM593.066667 213.333333c12.8 0 21.333333 8.533333 21.333333 21.333334v119.466666c0 12.8-8.533333 21.333333-21.333333 21.333334h-119.466667c-12.8 0-21.333333-8.533333-21.333333-21.333334V234.666667c0-12.8 8.533333-21.333333 21.333333-21.333334h119.466667z m238.933333 0c12.8 0 21.333333 8.533333 21.333333 21.333334v119.466666c0 12.8-8.533333 21.333333-21.333333 21.333334h-119.466667c-12.8 0-21.333333-8.533333-21.333333-21.333334V234.666667c0-12.8 8.533333-21.333333 21.333333-21.333334h119.466667z" fill="#838EA6" p-id="17342"></path></svg>